<?xml version="1.0" encoding="utf-8"?><svg version="1.1" id="Layer_1" xmlns="http://www.w3.org/2000/svg" xmlns:xlink="http://www.w3.org/1999/xlink" x="0px" y="0px" viewBox="0 0 114.66 122.88" style="enable-background:new 0 0 114.66 122.88" xml:space="preserve"><style type="text/css">.st0{fill-rule:evenodd;clip-rule:evenodd;}</style><g><path class="st0" d="M22.73,44.55c-0.92,5.29,3.65,9.32,6.52,9.05c-0.02-1.28,0.01-2.55,0-3.8c-3.53-1.03-4.01-7.28-0.02-8.76v1.61 c0.01-0.29,0.01-0.57,0.02-0.85v11.75c0,6.97,2.57,11.69,6.81,16.61c-4.18,4.21-6.38,5.18-10.84,7.17 c-7.4,3.29-12.71,6.05-17.75,12.86C3.88,95.03,1.43,101.66,0,108.47c5.22,6.32,15.21,10.31,27.19,12.53 c-0.81-2.79-1.25-5.73-1.25-8.78c0-17.33,14.05-31.39,31.39-31.39c17.33,0,31.39,14.05,31.39,31.39c0,2.79-0.37,5.5-1.05,8.08 c15.17-2.73,26.29-7.12,27-11.91c-1.72-7.29-4.66-13.96-8.56-18.81c-3.91-4.86-8.77-8.62-14.32-11.58 c-0.04-0.02-0.07-0.04-0.11-0.05l0,0c-1.11-0.44-2.33-0.9-3.4-1.3c-4.35-1.63-5.93-2.22-9.95-6.17c4.41-4.96,7.09-9.81,7.09-16.93 V40.88c0.02,0.58,0.03,1.18,0.04,1.77v-1.61c3.99,1.48,3.49,7.73-0.04,8.76c-0.01,1.26,0.01,2.52,0,3.8 c2.87,0.27,7.46-3.76,6.55-9.05C107.95-17.08,5.96-12.58,22.73,44.55L22.73,44.55z M33.8,122.01c3.08,0.39,6.24,0.67,9.46,0.87 c-1.27-1.43-2.33-3.09-3.27-4.94c-2.18-3.51-8.37-1.7-6.4,3.63C33.67,121.71,33.74,121.86,33.8,122.01L33.8,122.01z M71.97,122.38 c3.19-0.29,6.31-0.65,9.32-1.07c1.69-5.13-4.34-6.82-6.49-3.37C73.98,119.58,73.06,121.07,71.97,122.38L71.97,122.38z M57.2,112.29 c0.9,0,1.62,0.73,1.62,1.62c0,0.9-0.73,1.62-1.62,1.62c-0.9,0-1.62-0.73-1.62-1.62C55.57,113.02,56.3,112.29,57.2,112.29 L57.2,112.29z M57.21,108.04c3.24,0,5.86,2.62,5.86,5.86c0,3.24-2.62,5.86-5.86,5.86c-3.24,0-5.86-2.62-5.86-5.86 C51.35,110.67,53.98,108.04,57.21,108.04L57.21,108.04z M33.5,103.6c2.27-6.29,6.91-11.6,12.72-14.31 c7.99-3.72,17.68-3.96,25.89,2.12c4.84,3.58,6.61,6.52,9.02,11.73c1.83,4.62,0.33,6.11-5.55,3.52c-12.15-6.01-24.44-5.74-36.84,0 C34.16,109.64,31.6,107.15,33.5,103.6L33.5,103.6L33.5,103.6z M66.77,30.4c-0.66,0-1.2-0.54-1.19-1.2c0-0.66,0.54-1.2,1.2-1.19 c1.98,0.01,3.8,0.38,5.43,1.15c1.64,0.77,3.08,1.93,4.3,3.51c0.41,0.52,0.31,1.28-0.22,1.68c-0.52,0.4-1.28,0.31-1.68-0.22 c-0.98-1.27-2.13-2.2-3.42-2.81C69.89,30.7,68.41,30.4,66.77,30.4L66.77,30.4L66.77,30.4z M51.78,66.87 c-0.5-0.27-0.69-0.89-0.43-1.39c0.27-0.5,0.89-0.69,1.39-0.43c1.59,0.84,3.15,1.27,4.68,1.28c1.53,0,3.07-0.42,4.61-1.27 c0.5-0.27,1.12-0.09,1.4,0.41c0.27,0.5,0.09,1.12-0.41,1.4c-1.84,1.02-3.71,1.52-5.6,1.52C55.54,68.37,53.66,67.86,51.78,66.87 L51.78,66.87L51.78,66.87z M66.86,61.97c-1.03,0.35-2.09,0.65-3.19,0.88v0c-1.12,0.31-2.16,0.5-3.08,0.52 c-1.05,0.02-1.95-0.17-2.67-0.65c-0.22-0.15-0.42-0.3-0.59-0.47c-0.17,0.17-0.37,0.32-0.59,0.47c-0.72,0.48-1.62,0.67-2.67,0.65 c-0.92-0.02-1.95-0.21-3.08-0.52v0c-1.09-0.24-2.15-0.53-3.19-0.88c-1.03-0.35-2.03-0.75-3.01-1.21c-0.47-0.22-0.66-0.75-0.42-1.18 c0.14-0.26,0.4-0.43,0.69-0.47v0c0.52-0.08,0.94-0.14,1.33-0.19l0.03,0c1.26-0.17,2.23-0.31,3.41-0.78 c0.33-0.13,0.66-0.28,0.99-0.43c1.89-0.87,3.95-1.83,6.01-0.19c0.18,0.14,0.34,0.29,0.49,0.44c0.15-0.15,0.31-0.3,0.49-0.44 c2.06-1.64,4.12-0.68,6.01,0.19c0.33,0.15,0.65,0.3,0.98,0.43c1.18,0.47,2.15,0.61,3.41,0.78l0.03,0c0.39,0.05,0.81,0.11,1.33,0.19 l0,0c0.29,0.05,0.55,0.21,0.69,0.47c0.24,0.43,0.05,0.96-0.42,1.18C68.89,61.22,67.89,61.62,66.86,61.97L66.86,61.97L66.86,61.97z M54.86,53.19c-0.41-0.35-0.47-0.96-0.12-1.38c0.35-0.41,0.97-0.47,1.38-0.12c0.49,0.41,0.96,0.63,1.41,0.63 c0.45,0.01,0.94-0.2,1.47-0.64c0.42-0.34,1.03-0.28,1.38,0.13c0.34,0.42,0.28,1.03-0.13,1.38c-0.9,0.74-1.82,1.09-2.74,1.08 C56.57,54.26,55.69,53.89,54.86,53.19L54.86,53.19L54.86,53.19L54.86,53.19z M41.26,37.52c-0.39,0.15-0.82-0.08-0.96-0.53 c-0.14-0.45,0.07-0.93,0.47-1.09c1.52-0.59,3.05-0.87,4.57-0.86c1.52,0.01,3.04,0.31,4.55,0.85c0.39,0.14,0.61,0.62,0.49,1.07 c-0.12,0.45-0.55,0.7-0.94,0.56c-0.5-0.18-1-0.33-1.51-0.45c0.05,0.18,0.08,0.37,0.08,0.57c0,1.17-0.94,2.11-2.11,2.11 c-1.17,0-2.11-0.95-2.11-2.11c0-0.29,0.06-0.56,0.16-0.81C43.05,36.95,42.16,37.17,41.26,37.52L41.26,37.52L41.26,37.52z M65.77,36.89c-0.09,0.23-0.15,0.04-0.15,0.75c0,0.71,0.94,2.11,2.11,2.11c1.17,0,2.11-0.95,2.11-2.11c0-0.34-0.08-0.65-0.22-0.93 c0.92,0.1,1.85,0.3,2.79,0.61c0.4,0.13,0.82-0.13,0.93-0.59c0.11-0.45-0.12-0.93-0.52-1.06c-1.52-0.5-3.04-0.74-4.56-0.74 c-1.51,0-3.02,0.25-4.51,0.75c-0.4,0.13-0.63,0.6-0.51,1.06c0.12,0.45,0.53,0.71,0.93,0.58C64.69,37.14,65.24,37,65.77,36.89 L65.77,36.89L65.77,36.89L65.77,36.89z M47.85,28.24c0.66-0.03,1.22,0.48,1.25,1.15c0.03,0.66-0.48,1.22-1.15,1.25 c-1.84,0.09-3.41,0.46-4.72,1.09c-1.28,0.62-2.32,1.5-3.15,2.62c-0.39,0.53-1.15,0.64-1.68,0.25c-0.53-0.39-0.64-1.15-0.25-1.68 c1.06-1.43,2.4-2.56,4.04-3.35C43.79,28.79,45.67,28.34,47.85,28.24L47.85,28.24L47.85,28.24L47.85,28.24z M57.33,12.37 c-13.42,0-24.4,10.99-24.4,24.4v16.77c0,6.71,2.75,11.13,7.17,15.56c4.42,4.42,10.52,7.17,17.23,7.17c6.71,0,12.81-2.75,17.23-7.17 c4.42-4.42,7.17-8.85,7.17-15.56V36.78C81.73,23.36,70.75,12.37,57.33,12.37L57.33,12.37z"/></g></svg>