<svg xmlns="http://www.w3.org/2000/svg" shape-rendering="geometricPrecision" text-rendering="geometricPrecision" image-rendering="optimizeQuality" fill-rule="evenodd" clip-rule="evenodd" viewBox="0 0 512 512"><path fill-rule="nonzero" d="M156.92 231.12a9.776 9.776 0 0 1-.12-13.91c3.85-3.88 10.15-3.93 14.06-.12l86.31 83.71 83.89-83.63c3.87-3.85 10.16-3.87 14.06-.04a9.778 9.778 0 0 1 .04 13.92l-90.85 90.56c-3.85 3.83-10.12 3.87-14.02.07l-93.37-90.56zM256 512c-70.69 0-134.69-28.66-181.02-74.98C28.66 390.7 0 326.69 0 256c0-70.69 28.66-134.7 74.98-181.02C121.31 28.66 185.31 0 256 0c70.7 0 134.7 28.65 181.02 74.98C483.35 121.3 512 185.31 512 256c0 70.69-28.66 134.7-74.98 181.02C390.7 483.34 326.69 512 256 512zM89.08 422.92c42.72 42.71 101.73 69.14 166.92 69.14 65.19 0 124.21-26.42 166.92-69.14 42.71-42.71 69.14-101.73 69.14-166.92 0-65.19-26.42-124.21-69.14-166.92C380.21 46.36 321.19 19.94 256 19.94c-65.19 0-124.2 26.43-166.92 69.14C46.36 131.79 19.94 190.81 19.94 256c0 65.19 26.43 124.21 69.14 166.92z"/></svg>